<svg width="36" height="29" viewBox="0 0 36 29" fill="none" xmlns="http://www.w3.org/2000/svg">
<path d="M0 24.2366C0 26.6702 1.791 28.6433 4.00001 28.6433H32C34.2091 28.6433 36.0001 26.6702 36.0001 24.2366V19.83H0V24.2366Z" fill="#138808"/>
<path d="M0 8.8134H36.0001V19.83H0V8.8134Z" fill="#EEEEEE"/>
<path d="M36.0001 8.81328V4.40664C36.0001 1.97307 34.2091 0 32 0H4.00001C1.791 0 0 1.97307 0 4.40664V8.81328H36.0001Z" fill="#FF9933"/>
<path d="M18.0001 18.7283C20.2093 18.7283 22.0001 16.7553 22.0001 14.3216C22.0001 11.8879 20.2093 9.91499 18.0001 9.91499C15.791 9.91499 14.0001 11.8879 14.0001 14.3216C14.0001 16.7553 15.791 18.7283 18.0001 18.7283Z" fill="#000080"/>
<path d="M17.9999 17.6265C19.6568 17.6265 20.9999 16.1468 20.9999 14.3216C20.9999 12.4963 19.6568 11.0166 17.9999 11.0166C16.3431 11.0166 14.9999 12.4963 14.9999 14.3216C14.9999 16.1468 16.3431 17.6265 17.9999 17.6265Z" fill="#EEEEEE"/>
<path d="M17.9999 11.0166L18.1459 13.5107L19.1469 11.2688L18.4169 13.6341L20.1209 11.9838L18.6239 13.8622L20.7709 13.0568L18.7359 14.1607L20.9999 14.3216L18.7359 14.4824L20.7709 15.5852L18.6239 14.7809L20.1209 16.6582L18.4169 15.009L19.1469 17.3743L18.1459 15.1324L17.9999 17.6265L17.8539 15.1324L16.8519 17.3743L17.5829 15.009L15.8779 16.6582L17.3759 14.7809L15.2289 15.5852L17.2639 14.4824L14.9999 14.3216L17.2639 14.1607L15.2289 13.0568L17.3759 13.8622L15.8779 11.9838L17.5829 13.6341L16.8519 11.2688L17.8539 13.5107L17.9999 11.0166Z" fill="#6666B3"/>
<path d="M18.0001 15.4233C18.5523 15.4233 19.0001 14.9301 19.0001 14.3216C19.0001 13.7132 18.5523 13.22 18.0001 13.22C17.4478 13.22 17.0001 13.7132 17.0001 14.3216C17.0001 14.9301 17.4478 15.4233 18.0001 15.4233Z" fill="#000080"/>
</svg>
